<?xml version="1.0" encoding="utf-8"?>
<!-- Generator: Adobe Illustrator 15.0.0, SVG Export Plug-In  -->
<!DOCTYPE svg PUBLIC "-//W3C//DTD SVG 1.1//EN" "http://www.w3.org/Graphics/SVG/1.1/DTD/svg11.dtd" [
	<!ENTITY ns_flows "http://ns.adobe.com/Flows/1.0/">
]>
<svg version="1.1"
	 xmlns="http://www.w3.org/2000/svg" xmlns:xlink="http://www.w3.org/1999/xlink" xmlns:a="http://ns.adobe.com/AdobeSVGViewerExtensions/3.0/"
	 x="0px" y="0px" width="48px" height="33px" viewBox="0 0 48 33" overflow="visible" enable-background="new 0 0 48 33"
	 xml:space="preserve">
<defs>
</defs>
<linearGradient id="SVGID_1_" gradientUnits="userSpaceOnUse" x1="13.0444" y1="20.252" x2="45.1797" y2="20.252">
	<stop  offset="0" style="stop-color:#FFFFFF"/>
	<stop  offset="1" style="stop-color:#E44145"/>
</linearGradient>
<polygon fill="url(#SVGID_1_)" points="3.36,14.996 7.559,33.07 39.075,33.484 44.114,15.84 36.135,20.871 23.952,7.02 
	11.348,20.465 "/>
<linearGradient id="SVGID_2_" gradientUnits="userSpaceOnUse" x1="27.2666" y1="21.1709" x2="36.8675" y2="21.1709">
	<stop  offset="0" style="stop-color:#FFFFFF"/>
	<stop  offset="1" style="stop-color:#E44145"/>
</linearGradient>
<polygon fill="url(#SVGID_2_)" points="24.373,9.547 25.209,32.213 35.715,32.795 36.549,24.238 "/>
<linearGradient id="SVGID_3_" gradientUnits="userSpaceOnUse" x1="14.5508" y1="20.3184" x2="24.7099" y2="20.3184">
	<stop  offset="0" style="stop-color:#FFFFFF"/>
	<stop  offset="1" style="stop-color:#E44145"/>
</linearGradient>
<polygon fill="url(#SVGID_3_)" points="11.489,21.158 12.33,32.361 24.373,31.947 23.819,8.275 "/>
<linearGradient id="SVGID_4_" gradientUnits="userSpaceOnUse" x1="5.9058" y1="23.8281" x2="13.4152" y2="23.8281">
	<stop  offset="0" style="stop-color:#FFFFFF"/>
	<stop  offset="1" style="stop-color:#E44145"/>
</linearGradient>
<polygon fill="url(#SVGID_4_)" points="3.643,15.709 8.12,31.947 13.166,31.812 11.489,21.158 "/>
<linearGradient id="SVGID_5_" gradientUnits="userSpaceOnUse" x1="1.2661" y1="10.6582" x2="5.4675" y2="10.6582">
	<stop  offset="0" style="stop-color:#FFFFFF"/>
	<stop  offset="1" style="stop-color:#E44145"/>
</linearGradient>
<path fill="url(#SVGID_5_)" d="M5.328,10.656c0,1.469-1.206,2.674-2.676,2.674C1.197,13.33,0,12.125,0,10.656
	c0-1.473,1.197-2.67,2.652-2.67C4.122,7.986,5.328,9.184,5.328,10.656z"/>
<linearGradient id="SVGID_6_" gradientUnits="userSpaceOnUse" x1="22.6924" y1="2.667" x2="26.8991" y2="2.667">
	<stop  offset="0" style="stop-color:#FFFFFF"/>
	<stop  offset="1" style="stop-color:#E44145"/>
</linearGradient>
<path fill="url(#SVGID_6_)" d="M26.76,2.674c0,1.471-1.204,2.66-2.675,2.66c-1.463,0-2.66-1.189-2.66-2.66
	c0-1.469,1.197-2.674,2.66-2.674C25.556,0,26.76,1.205,26.76,2.674z"/>
<linearGradient id="SVGID_7_" gradientUnits="userSpaceOnUse" x1="43.7061" y1="12.7559" x2="47.8943" y2="12.7559">
	<stop  offset="0" style="stop-color:#FFFFFF"/>
	<stop  offset="1" style="stop-color:#E44145"/>
</linearGradient>
<path fill="url(#SVGID_7_)" d="M47.756,12.76c0,1.455-1.196,2.652-2.666,2.652c-1.463,0-2.646-1.197-2.646-2.652
	c0-1.463,1.183-2.66,2.646-2.66C46.56,10.1,47.756,11.297,47.756,12.76z"/>
</svg>
